# Blender v2.79 (sub 0) OBJ File: ''
# www.blender.org
o earth.001
v 0.411590 1.579410 0.724203
v 0.334713 1.565008 0.729946
v 0.341088 1.579410 0.753870
v 0.542389 1.520677 -1.154624
v 1.013882 1.579410 -0.884577
v 1.040342 1.520677 -0.908995
v -0.407971 1.579410 0.447120
v -0.389501 1.565008 0.464170
v -0.390151 1.579410 0.467024
v 0.116940 1.520677 -1.217060
v 0.529381 1.579410 -1.123571
v 1.120509 1.520677 0.215991
v 1.130943 1.579410 -0.019087
v 1.091883 1.579410 0.210019
v -0.851439 1.520677 0.646443
v -0.637077 1.579410 0.863528
v -0.826795 1.579410 0.628842
v -0.324438 1.579410 -1.235838
v 0.115424 1.579410 -1.184320
v 1.160653 1.520677 -0.019475
v 1.121471 1.595402 -0.391021
v -0.844180 1.520677 -0.351023
v -0.758846 1.579410 -0.678504
v -0.781605 1.520677 -0.697201
v -0.469518 1.520677 -0.986011
v -0.335135 1.520677 -1.270008
v 1.160653 1.520677 -0.401181
v 1.136523 1.579410 -0.560997
v -0.045016 1.520677 1.010944
v -0.352172 1.579410 0.975127
v -0.363638 1.520677 1.002341
v -0.394394 1.527283 0.986727
v -0.395834 1.520677 0.989730
v -0.599087 1.520677 -0.851233
v -0.455190 1.579410 -0.959513
v 1.166388 1.520677 -0.576431
v 0.210522 1.520677 0.916318
v -0.042157 1.579410 0.983496
v -0.581259 1.579410 -0.828375
v -0.882594 1.579410 -0.139384
v -0.819732 1.579410 -0.341678
v 0.449534 1.579410 0.930487
v 0.206479 1.579410 0.891427
v 0.892244 1.520677 0.608947
v 0.857526 1.579410 0.696129
v 0.879644 1.520677 0.715598
v -0.914522 1.520677 0.080884
v -0.908787 1.520677 -0.143112
v 0.460326 1.520677 0.956462
v 0.611680 1.579410 0.855157
v -0.911494 1.520677 0.119430
v -0.888173 1.579410 0.078562
v 0.626974 1.520677 0.879042
v 0.183442 1.579410 0.784156
v 0.091320 1.565008 0.781329
v 0.079781 1.573329 0.799928
v -0.511914 1.579410 -0.517269
v -0.591158 1.585647 -0.250421
v -0.568758 1.579410 -0.407336
v -0.632730 1.579410 -0.061366
v -0.603746 1.586014 -0.161159
v -0.750387 1.579410 0.151361
v -0.640301 1.579410 0.042558
v -0.407971 1.579410 0.237918
v -0.517812 1.579410 0.324441
v 0.502777 1.591821 0.231842
v 0.604501 1.579410 0.392050
v 0.810033 1.579410 0.383936
v 0.279346 1.579410 0.237918
v 0.294982 1.579410 0.442107
v 0.389559 1.579410 0.408691
v 0.045255 1.592053 0.460093
v 0.191240 1.581806 0.437805
v -0.172896 1.566354 0.244309
v 0.050240 1.579410 0.237918
v -0.178866 1.579410 0.467024
v 0.508451 1.579410 0.008813
v 0.279346 1.579410 0.008813
v 0.050240 1.579410 0.008813
v -0.178866 1.579410 0.008813
v -0.407971 1.579410 0.008813
v 0.508451 1.579410 -0.220293
v 0.279346 1.565909 -0.220293
v 0.050240 1.579410 -0.220293
v -0.178866 1.579410 -0.220293
v -0.406216 1.590693 -0.176584
v 0.508451 1.579410 -0.449398
v 0.042306 1.584786 -0.443745
v 0.280413 1.561708 -0.460197
v -0.124288 1.580737 -0.448003
v -0.178866 1.579410 -0.449398
v -0.407971 1.579410 -0.449398
v -0.076051 1.583348 -0.612866
v -0.418920 1.579410 -0.567690
v -0.247219 1.579410 -0.575585
v 0.250626 1.579410 0.471647
v 0.137294 1.565008 0.554163
v 0.286027 1.565008 0.480596
v 0.144398 1.583028 0.534067
v -0.050227 1.579410 0.560236
v -0.279200 1.579410 0.544355
v -0.139425 1.579410 0.562643
v 0.565018 1.579410 0.650635
v 0.909290 1.565008 0.410785
v 0.908640 1.579410 0.413638
v 0.070264 1.579410 0.541892
v -0.089872 1.565008 0.592024
v 0.087099 1.565008 0.562529
v -0.677369 1.579410 0.529972
v -0.643403 1.579410 0.557986
v 0.623431 1.579410 0.611104
v 0.605151 1.565008 0.389196
v 0.810682 1.565008 0.381084
v -0.146986 1.565008 0.582153
v -0.208736 1.566682 0.805583
v -0.420691 1.574398 0.756188
v -0.384648 1.577797 0.900577
v 0.555133 1.565008 0.637247
v 0.509100 1.565008 0.407206
v 0.371855 1.565008 0.714327
v 0.935390 1.520677 0.421695
v 0.807329 1.579410 0.592173
v 0.624081 1.565008 0.608250
v -0.885895 1.520677 0.398091
v -0.858215 1.579410 0.402366
v -0.093368 1.565008 0.784719
v -0.092034 1.564514 0.799373
v 0.911945 1.520798 0.418842
v 0.162144 1.565008 0.766379
v -0.883895 1.565008 0.121918
v -0.884544 1.579410 0.124772
v 0.869030 1.565008 0.601379
v 0.868381 1.579410 0.604233
v -0.308926 1.565008 0.554163
v -0.587360 1.579410 0.272684
v -0.517162 1.565008 0.321588
v -0.857565 1.565008 0.399513
v -0.856810 1.521018 0.395238
v -0.407322 1.565008 0.444267
v -0.203456 1.565008 0.786739
v -0.642754 1.565008 0.555133
v -0.676720 1.565008 0.527120
v -0.375779 1.565008 0.751390
v -0.376428 1.579410 0.754243
v -0.414396 1.565008 0.743469
v 0.319236 1.565008 0.464170
v 0.388801 1.565008 0.429763
v 0.508451 1.579410 0.410059
v -0.749738 1.565008 0.148508
v 0.807978 1.565008 0.589320
v -0.586710 1.565008 0.269831
v -0.656454 1.520677 0.887643
v -0.513278 1.579410 0.163712
v -0.608333 1.579410 0.164351
v -0.121733 1.583013 -0.613809
v -0.601939 1.578544 0.734621
v -0.511928 1.576478 0.731104
v -0.882409 1.521018 0.116576
v 0.868800 1.520798 0.606093
v -0.456793 1.579410 -0.556171
v -0.493296 1.588317 -0.211350
v -0.496708 1.588549 -0.169518
v -0.529872 1.579410 0.059560
v -0.481959 1.581877 -0.370310
v -0.533869 1.579410 0.027099
v -0.053267 1.582987 -0.485445
v -0.039154 1.583906 -0.528197
v -0.532745 1.579410 -0.030147
v -0.630147 1.579410 0.101305
v -0.498122 1.576191 0.794598
v -0.450045 1.576686 0.832366
v -0.515493 1.520677 0.942859
v -0.516437 1.553498 0.924771
v -0.540759 1.579118 0.890029
v -0.517182 1.579410 0.910491
v -0.383039 1.579410 0.963035
v -0.595859 1.578456 0.843081
v -0.607564 1.578710 0.814083
vn -0.1964 0.8623 -0.4668
vn 0.3840 0.4966 -0.7784
vn -0.7350 -0.1635 0.6581
vn -0.7350 -0.1636 0.6581
vn 0.1269 0.4855 -0.8650
vn 0.8826 0.4455 0.1505
vn -0.6915 0.4576 0.5590
vn 0.1016 0.4864 -0.8678
vn 0.8923 0.4514 -0.0033
vn -0.9014 0.4012 -0.1629
vn -0.8353 0.3821 -0.3953
vn 0.8870 0.4603 0.0352
vn -0.0244 0.4242 0.9052
vn -0.3258 0.4492 0.8319
vn -0.3259 0.4491 0.8319
vn -0.3259 0.4492 0.8319
vn -0.6477 0.4390 -0.6227
vn 0.8129 0.4943 -0.3081
vn 0.3200 0.3883 0.8642
vn -0.5784 0.4423 -0.6854
vn -0.8726 0.4063 -0.2711
vn -0.1469 0.3774 0.9143
vn 0.9179 0.3816 0.1084
vn -0.9125 0.4084 -0.0234
vn 0.3801 0.4316 0.8181
vn -0.9090 0.4106 0.0714
vn 0.4891 0.4348 0.7561
vn -0.1225 0.8754 -0.4676
vn 0.0000 1.0000 -0.0000
vn -0.0108 0.9991 -0.0413
vn -0.0108 0.9991 -0.0412
vn -0.0189 0.9980 0.0606
vn 0.0110 0.9973 0.0731
vn 0.0118 0.9975 0.0699
vn 0.0030 0.9972 0.0754
vn 0.0731 0.9971 0.0203
vn 0.0731 0.9971 0.0204
vn 0.0734 0.9970 0.0226
vn -0.0590 0.9965 -0.0590
vn -0.0600 0.9965 -0.0581
vn 0.0051 0.9983 -0.0584
vn 0.0000 0.9984 -0.0561
vn 0.0000 0.9985 -0.0556
vn 0.0000 0.9983 -0.0583
vn -0.0000 0.9984 0.0562
vn 0.0000 0.9985 0.0554
vn -0.0000 0.9982 0.0598
vn -0.0140 0.9990 0.0433
vn -0.0588 0.9983 0.0000
vn 0.0587 0.9965 -0.0587
vn 0.0496 0.9988 0.0000
vn -0.0169 0.9953 -0.0951
vn 0.0953 0.9953 -0.0170
vn -0.0249 0.9994 0.0249
vn -0.0245 0.9996 0.0133
vn -0.0248 0.9994 0.0228
vn -0.0773 0.9970 -0.0024
vn 0.0966 0.9953 0.0023
vn -0.0073 1.0000 -0.0034
vn -0.0067 1.0000 -0.0037
vn -0.0071 1.0000 -0.0035
vn 0.2301 0.8547 0.4652
vn 0.0735 0.9970 0.0231
vn -0.0539 0.9958 0.0743
vn 0.0217 0.9992 0.0326
vn -0.2827 -0.1987 0.9384
vn -0.0163 0.9989 -0.0439
vn 0.0869 0.8488 0.5215
vn 0.1142 0.7192 0.6853
vn 0.0387 -0.1924 0.9805
vn 0.0387 -0.1926 0.9805
vn -0.0603 0.9353 0.3486
vn 0.0020 0.9973 -0.0732
vn 0.0102 0.9996 -0.0261
vn -0.3669 0.7559 -0.5422
vn 0.1812 -0.1833 0.9662
vn 0.1812 -0.1832 0.9662
vn -0.2090 0.8754 -0.4358
vn 0.6828 0.3953 0.6145
vn -0.1006 0.1890 -0.9768
vn -0.9010 0.4155 0.1250
vn -0.0513 0.9979 0.0383
vn -0.1181 0.1712 0.9781
vn -0.1051 0.8305 -0.5470
vn -0.1067 0.8311 -0.5457
vn -0.1122 0.8335 -0.5410
vn 0.2046 -0.1814 0.9619
vn 0.6004 0.1814 -0.7789
vn -0.2851 0.8669 0.4090
vn -0.5870 -0.1827 0.7887
vn -0.0983 0.0946 -0.9907
vn -0.0979 0.8184 0.5662
vn 0.0140 0.9963 -0.0844
vn 0.0171 0.9963 -0.0838
vn 0.0139 0.9963 -0.0845
vn 0.6260 0.1785 -0.7591
vn 0.6260 0.1786 -0.7591
vn 0.3007 0.1984 -0.9329
vn 0.5666 0.1846 -0.8030
vn 0.5666 0.1847 -0.8030
vn -0.1148 0.7712 -0.6262
vn 0.2719 0.7899 0.5497
vn -0.1905 -0.1990 0.9613
vn -0.1905 -0.1991 0.9613
vn 0.1899 0.1990 -0.9614
vn 0.1892 0.9044 0.3824
vn -0.1964 0.8621 -0.4670
vn 0.8856 0.4644 0.0000
vn -0.9014 0.4011 -0.1629
vn 0.8941 0.4469 0.0293
vn 0.9179 0.3817 0.1084
vn 0.3801 0.4317 0.8181
vn -0.1139 0.8343 -0.5395
vn -0.0243 0.9997 -0.0075
vn 0.0127 0.9975 0.0698
vn 0.0224 0.9991 0.0363
vn -0.0008 0.9976 0.0695
vn 0.0232 0.9997 -0.0018
vn -0.0545 0.9979 0.0352
vn 0.0000 0.9984 -0.0568
vn -0.0581 0.9965 -0.0600
vn 0.0555 0.9985 0.0000
vn 0.0190 0.9983 -0.0551
vn -0.0555 0.9985 0.0000
vn -0.0567 0.9968 0.0567
vn 0.0000 0.9983 -0.0588
vn 0.0000 0.9982 0.0607
vn -0.0261 0.9997 0.0000
vn -0.0765 0.9969 -0.0178
vn 0.0588 0.9980 0.0219
vn 0.0416 0.9983 -0.0416
vn -0.0037 0.9997 0.0253
vn 0.0008 1.0000 -0.0072
vn -0.0246 0.9996 0.0133
vn 0.4219 0.5958 0.6834
vn 0.0372 0.9993 0.0054
vn -0.0310 0.9863 0.1619
vn 0.0222 0.9890 0.1461
vn -0.2827 -0.1986 0.9384
vn -0.0567 0.9983 0.0122
vn -0.0509 0.9965 -0.0668
vn 0.0741 0.8704 0.4868
vn 0.0189 0.8271 0.5618
vn 0.0161 0.8014 0.5979
vn 0.0783 0.9969 -0.0086
vn -0.1120 0.9936 0.0123
vn 0.0229 0.9997 -0.0005
vn -0.3825 0.1630 -0.9095
vn -0.2578 0.7468 -0.6130
vn -0.0076 0.9110 -0.4123
vn -0.6225 -0.1790 0.7618
vn -0.1040 0.8641 -0.4925
vn 0.0983 -0.1167 0.9883
vn 0.1196 -0.1059 -0.9872
vn -0.2320 0.1789 -0.9561
vn -0.0944 0.6861 0.7214
vn 0.0006 0.9994 0.0336
vn 0.0172 0.9963 -0.0837
vn 0.1969 0.1991 -0.9600
vn 0.1487 0.8949 0.4207
vn 0.3881 0.8227 -0.4153
vn -0.0065 0.8257 0.5641
vn 0.1899 0.1991 -0.9614
vn 0.2603 0.8828 0.3909
vn -0.0246 0.9996 0.0144
vn -0.0246 0.9996 0.0134
vn -0.0072 1.0000 -0.0034
vn 0.0102 0.9996 -0.0260
s 1
f 1//1 2//1 3//1
f 4//2 5//2 6//2
f 7//3 8//4 9//4
f 10//5 11//5 4//5
f 12//6 13//6 14//6
f 15//7 16//7 17//7
f 10//8 18//8 19//8
f 20//9 21//9 13//9
f 22//10 23//10 24//10
f 25//11 18//11 26//11
f 27//12 28//12 21//12
f 29//13 30//13 31//13
f 31//14 32//15 33//16
f 34//17 35//17 25//17
f 36//18 5//18 28//18
f 37//19 38//19 29//19
f 34//20 23//20 39//20
f 22//21 40//21 41//21
f 37//22 42//22 43//22
f 44//23 45//23 46//23
f 47//24 40//24 48//24
f 49//25 50//25 42//25
f 51//26 52//26 47//26
f 53//27 45//27 50//27
f 54//28 55//28 56//28
f 57//29 39//29 23//29
f 41//30 58//31 59//30
f 40//32 60//32 61//32
f 62//29 63//29 52//29
f 64//29 65//29 7//29
f 66//33 67//34 68//35
f 69//29 70//29 71//29
f 69//36 72//37 73//38
f 74//39 72//39 75//40
f 7//41 76//41 74//41
f 77//29 14//29 13//29
f 78//42 66//43 77//44
f 79//29 69//29 78//29
f 80//29 75//29 79//29
f 81//45 74//46 80//47
f 82//48 13//48 21//48
f 83//49 77//49 82//49
f 84//50 78//50 83//50
f 85//29 79//29 84//29
f 86//51 80//51 85//51
f 87//52 21//52 28//52
f 87//49 83//49 82//49
f 88//53 83//53 89//53
f 84//54 90//55 91//56
f 92//29 85//29 91//29
f 5//29 87//29 28//29
f 11//57 89//57 87//57
f 19//58 88//58 89//58
f 93//59 88//60 18//61
f 35//29 94//29 95//29
f 96//62 97//62 98//62
f 72//37 99//63 73//38
f 76//64 100//64 72//64
f 76//29 101//29 102//29
f 1//29 50//29 103//29
f 96//65 70//65 73//65
f 68//66 104//66 105//66
f 56//67 38//67 43//67
f 106//68 107//68 108//68
f 99//69 108//69 97//69
f 109//29 17//29 110//29
f 111//29 50//29 45//29
f 68//70 112//71 113//70
f 3//29 43//29 42//29
f 100//72 114//72 107//72
f 115//73 30//73 38//73
f 116//74 117//74 30//74
f 111//75 118//75 103//75
f 67//76 119//77 112//76
f 103//78 120//78 1//78
f 121//79 14//79 105//79
f 122//80 123//80 111//80
f 124//81 17//81 125//81
f 56//82 126//82 127//82
f 121//83 104//83 128//83
f 3//84 129//85 54//86
f 51//87 130//87 131//87
f 44//88 132//88 133//88
f 9//89 134//89 101//89
f 135//90 136//90 65//90
f 124//91 137//91 138//91
f 102//92 134//92 114//92
f 65//3 139//3 7//3
f 127//93 140//94 115//95
f 109//96 141//97 142//96
f 115//98 143//98 144//98
f 125//99 142//99 137//100
f 144//101 145//101 116//101
f 71//102 146//102 147//102
f 110//97 145//97 141//97
f 148//77 147//77 119//77
f 62//103 130//104 149//103
f 133//105 150//105 122//105
f 70//106 98//106 146//106
f 62//90 151//90 135//90
f 1//107 120//107 2//107
f 4//2 11//2 5//2
f 7//3 139//3 8//4
f 10//5 19//5 11//5
f 12//6 20//6 13//6
f 15//7 152//7 16//7
f 10//8 26//8 18//8
f 20//108 27//108 21//108
f 22//109 41//109 23//109
f 25//11 35//11 18//11
f 27//110 36//110 28//110
f 29//13 38//13 30//13
f 30//15 32//15 31//15
f 34//17 39//17 35//17
f 36//18 6//18 5//18
f 37//19 43//19 38//19
f 34//20 24//20 23//20
f 22//21 48//21 40//21
f 37//22 49//22 42//22
f 44//111 133//111 45//111
f 47//24 52//24 40//24
f 49//25 53//112 50//25
f 51//26 131//26 52//26
f 53//27 46//27 45//27
f 54//86 129//85 55//113
f 23//29 59//29 57//29
f 41//114 61//114 58//114
f 52//29 60//29 40//29
f 64//29 153//29 135//29
f 52//29 131//29 62//29
f 135//29 154//29 62//29
f 64//29 135//29 65//29
f 105//29 14//29 68//29
f 66//33 148//115 67//34
f 68//116 14//116 66//116
f 148//115 66//33 71//117
f 69//118 73//118 70//118
f 71//119 66//119 69//119
f 69//120 75//120 72//120
f 74//39 76//121 72//39
f 76//29 7//29 9//29
f 64//122 7//122 74//122
f 77//123 66//123 14//123
f 78//124 69//124 66//124
f 79//29 75//29 69//29
f 80//125 74//125 75//125
f 81//122 64//122 74//122
f 82//29 77//29 13//29
f 83//126 78//42 77//44
f 84//29 79//29 78//29
f 85//29 80//29 79//29
f 86//127 81//45 80//47
f 87//128 82//128 21//128
f 87//129 89//129 83//129
f 88//130 84//130 83//130
f 91//29 85//29 84//29
f 92//131 86//131 85//131
f 5//29 11//29 87//29
f 11//132 19//132 89//132
f 19//133 18//61 88//60
f 95//134 155//134 35//134
f 39//29 94//29 35//29
f 96//135 99//135 97//135
f 96//136 73//136 99//136
f 72//137 106//137 99//137
f 106//138 72//138 100//138
f 76//29 102//29 100//29
f 76//29 9//29 101//29
f 1//29 42//29 50//29
f 68//139 113//139 104//139
f 43//140 54//140 56//140
f 56//141 127//141 38//141
f 106//142 100//142 107//142
f 99//143 106//143 108//143
f 109//29 125//29 17//29
f 45//29 133//29 122//29
f 122//29 111//29 45//29
f 103//29 50//29 111//29
f 68//70 67//71 112//71
f 42//29 1//29 3//29
f 3//29 54//29 43//29
f 100//144 102//144 114//144
f 38//93 127//93 115//95
f 115//145 144//145 30//145
f 30//146 144//146 116//146
f 110//147 156//147 157//147
f 17//29 16//29 110//29
f 111//148 123//148 118//148
f 67//76 148//77 119//77
f 103//149 118//149 120//149
f 121//79 12//79 14//79
f 122//80 150//80 123//80
f 124//81 15//81 17//81
f 56//150 55//150 126//150
f 121//151 105//151 104//151
f 3//152 2//152 129//152
f 51//153 158//153 130//153
f 44//154 159//154 132//154
f 9//4 8//4 134//4
f 135//90 151//90 136//90
f 124//155 125//155 137//155
f 102//156 101//156 134//156
f 65//3 136//3 139//3
f 127//157 126//157 140//157
f 109//96 110//97 141//97
f 115//95 140//94 143//158
f 125//99 109//99 142//99
f 144//159 143//159 145//159
f 71//160 70//160 146//160
f 110//161 116//161 145//161
f 148//162 71//162 147//162
f 62//103 131//104 130//104
f 133//163 132//163 150//163
f 70//164 96//164 98//164
f 62//90 149//90 151//90
f 57//29 160//29 39//29
f 161//114 162//114 86//114
f 163//29 153//29 81//29
f 164//30 86//31 92//30
f 165//29 163//29 81//29
f 166//134 88//165 167//166
f 168//29 165//29 81//29
f 162//32 81//32 86//32
f 62//29 169//29 63//29
f 84//54 88//165 90//55
f 18//61 35//167 155//59
f 93//59 167//167 88//60
f 18//61 155//59 93//59
f 23//29 41//29 59//29
f 41//114 40//114 61//114
f 52//29 63//29 60//29
f 64//29 81//29 153//29
f 169//29 62//29 154//29
f 135//29 153//29 154//29
f 39//29 160//29 94//29
f 164//30 161//31 86//31
f 166//134 90//55 88//165
f 162//32 168//32 81//32
f 116//74 170//74 171//74
f 32//15 172//15 33//16
f 173//15 152//15 172//15
f 174//168 16//74 175//74
f 176//15 173//15 32//15
f 173//15 175//15 16//15
f 117//74 176//74 30//74
f 116//74 171//74 117//74
f 30//15 176//15 32//15
f 16//147 177//147 178//147
f 16//147 178//147 156//147
f 157//147 170//147 116//147
f 110//147 16//147 156//147
f 157//147 116//147 110//147
f 32//15 173//15 172//15
f 173//15 16//15 152//15
f 174//168 177//74 16//74
f 176//15 175//15 173//15
f 156//147 178//147 170//147
f 170//147 157//147 156//147
f 117//74 171//74 175//74
f 175//74 176//74 117//74
f 170//74 177//74 174//168
f 174//168 171//74 170//74
f 175//74 171//74 174//168
f 177//147 170//147 178//147
f 153//29 163//29 154//29
f 169//29 154//29 163//29
f 163//29 165//29 169//29
f 63//29 169//29 165//29
f 165//29 168//29 63//29
f 60//29 63//29 168//29
f 168//32 162//32 60//32
f 61//32 60//32 162//32
f 162//114 161//114 61//114
f 58//114 61//114 161//114
f 161//31 164//30 58//31
f 59//30 58//31 164//30
f 164//30 92//30 59//30
f 57//29 59//29 92//29
f 95//29 94//29 91//29
f 57//29 92//29 160//29
f 91//56 90//55 95//134
f 155//134 95//134 90//55
f 93//59 155//59 167//167
f 155//134 90//55 166//134
f 155//134 166//134 167//166
f 92//29 94//29 160//29
f 94//29 92//29 91//29
