# Blender v2.79 (sub 0) OBJ File: ''
# www.blender.org
o island.001
v -0.301009 0.107879 -0.267925
v -0.716991 0.710360 -0.574717
v -0.690303 0.710354 -0.722341
v 0.360086 0.107879 -0.310963
v 0.436492 0.710357 -0.733194
v 0.650178 0.710359 -0.565991
v 0.410408 0.107879 0.218880
v 0.770063 0.710356 0.386368
v 0.756612 0.710356 0.500232
v -0.185771 0.107879 0.078578
v -0.360402 0.710356 0.601826
v -0.542998 0.710356 0.426434
v 0.096151 0.107879 -0.103939
v 0.546574 0.107879 -0.044895
v 0.955356 0.710357 -0.299092
v 0.952909 0.710354 -0.224358
v 1.013262 0.710356 0.320603
v -0.672120 0.710356 0.266708
v -0.700603 0.710356 0.061409
v -0.746986 0.710357 -0.390533
v -0.744542 0.710360 -0.486055
v 0.133436 0.107879 0.238440
v 0.055761 0.107879 -0.450411
v 0.648863 0.710356 0.569931
v 0.418938 0.710356 0.614166
v 0.166308 0.710356 0.527516
v -0.041445 0.710356 0.697184
v -0.389712 0.710359 -0.781926
v -0.334458 0.710359 -0.839402
v -0.072522 0.710354 -1.065174
v 0.081850 0.710356 -0.777343
v -0.885895 1.520677 0.398091
v -0.894450 1.520677 0.336423
v 0.626974 1.520677 0.879042
v 0.460326 1.520677 0.956462
v 0.210522 1.520677 0.916318
v -0.045016 1.520677 1.010944
v -0.656454 1.520677 0.887643
v 1.059872 0.710357 0.091023
v 1.120509 1.520677 0.215991
v -0.851439 1.520677 0.646443
v 0.879644 1.520677 0.715598
v -0.363638 1.520677 1.002341
v 0.911186 1.520677 0.448590
v 0.892244 1.520677 0.608947
v 0.935390 1.520677 0.421695
v 1.160653 1.520677 -0.019475
v -0.469518 1.520677 -0.986011
v 0.542389 1.520677 -1.154624
v 1.040342 1.520677 -0.908995
v 1.160653 1.520677 -0.401181
v -0.335135 1.520677 -1.270008
v 0.116940 1.520677 -1.217060
v -0.599087 1.520677 -0.851233
v 1.166388 1.520677 -0.576431
v -0.844180 1.520677 -0.351023
v -0.908787 1.520677 -0.143112
v -0.781605 1.520677 -0.697201
v -0.395834 1.520677 0.989730
v -0.515493 1.520677 0.942859
v -0.914522 1.520677 0.080884
vn -0.7797 -0.6101 -0.1409
vn 0.5214 -0.5331 -0.6663
vn 0.8420 -0.5303 0.0995
vn -0.5338 -0.6374 0.5557
vn 0.0000 -1.0000 -0.0000
vn 0.5556 -0.5364 -0.6353
vn 0.7109 -0.7029 0.0232
vn 0.6635 -0.5860 -0.4651
vn 0.6389 -0.6950 0.3298
vn 0.2403 -0.3905 0.8887
vn -0.6001 -0.6360 0.4852
vn -0.7575 -0.6443 0.1051
vn -0.7403 -0.6256 0.2462
vn -0.8016 -0.5975 -0.0205
vn -0.7419 -0.6296 -0.2305
vn 0.4441 -0.5758 0.6865
vn 0.0589 -0.5482 0.8343
vn -0.2974 -0.3998 0.8670
vn 0.5861 -0.3763 0.7176
vn -0.3318 -0.6716 0.6625
vn -0.1470 -0.6544 -0.7417
vn -0.5913 -0.5720 -0.5685
vn -0.3436 -0.6563 -0.6718
vn 0.8453 -0.2826 -0.4534
vn 0.3429 -0.5679 -0.7483
vn -0.9529 -0.2728 0.1322
vn 0.3906 -0.3751 0.8407
vn 0.3266 -0.3400 0.8819
vn -0.6177 -0.4525 0.6431
vn 0.9747 -0.1035 0.1979
vn -0.7047 -0.4229 0.5697
vn 0.5194 -0.2923 0.8030
vn -0.2588 -0.4288 0.8655
vn 0.9771 -0.1790 0.1154
vn 0.2599 -0.0949 0.9610
vn 0.9349 -0.1595 -0.3171
vn -0.7001 -0.2385 -0.6730
vn 0.3806 -0.5098 -0.7715
vn 0.9698 -0.2417 0.0317
vn -0.8390 -0.3722 -0.3970
vn 0.1281 -0.4707 -0.8729
vn -0.1927 -0.1329 -0.9722
vn 0.6050 -0.3943 -0.6917
vn -0.9528 -0.0678 -0.2961
vn -0.9818 -0.1884 -0.0251
vn -0.9786 -0.1048 -0.1769
vn 0.7633 -0.5919 -0.2589
vn 0.7358 -0.6606 0.1494
vn -0.8090 -0.5819 0.0830
vn 0.1586 -0.5432 0.8245
vn -0.2223 -0.6307 0.7435
vn -0.4824 -0.6738 -0.5597
vn 0.1085 -0.4778 -0.8718
vn 0.1772 -0.3466 0.9211
vn -0.3311 -0.4192 0.8454
vn 0.9809 -0.0992 0.1672
vn -0.1469 -0.3785 0.9139
vn -0.0252 -0.3611 0.9322
vn -0.9616 -0.2562 0.0987
vn 0.9770 -0.1790 0.1154
vn 0.7315 -0.1779 0.6583
vn 0.7433 -0.0120 0.6689
vn 0.9687 -0.2483 -0.0000
vn 0.5534 -0.4401 -0.7072
vn -0.6340 -0.2388 -0.7356
vn 0.1138 -0.2087 -0.9713
vn -0.6442 -0.0489 -0.7633
vn 0.8017 -0.5147 -0.3039
vn -0.9637 -0.2562 0.0757
s 1
f 1//1 2//1 3//1
f 4//2 5//2 6//2
f 7//3 8//3 9//3
f 10//4 11//4 12//4
f 13//5 4//5 14//5
f 13//5 14//5 7//5
f 4//6 6//6 15//6
f 4//7 15//7 16//7
f 16//8 14//8 4//8
f 14//9 17//9 7//9
f 7//10 17//10 8//10
f 10//11 12//11 18//11
f 10//12 18//12 19//12
f 19//13 1//13 10//13
f 1//14 20//14 21//14
f 1//15 21//15 2//15
f 13//5 10//5 1//5
f 13//5 7//5 22//5
f 1//5 23//5 13//5
f 23//5 4//5 13//5
f 7//16 9//16 24//16
f 7//17 25//17 22//17
f 22//18 25//18 26//18
f 22//19 26//19 27//19
f 22//20 11//20 10//20
f 1//21 3//21 28//21
f 1//22 28//22 29//22
f 29//23 23//23 1//23
f 23//24 30//24 31//24
f 23//25 5//25 4//25
f 18//26 32//26 33//26
f 25//27 34//27 35//27
f 27//28 36//28 37//28
f 11//29 38//29 12//29
f 39//30 40//30 17//30
f 12//31 41//31 18//31
f 24//32 42//32 34//32
f 25//18 36//18 26//18
f 27//33 43//33 11//33
f 44//34 45//34 9//34
f 17//35 46//35 8//35
f 16//36 47//36 39//36
f 28//37 48//37 29//37
f 6//38 49//38 50//38
f 15//39 51//39 16//39
f 30//40 48//40 52//40
f 5//41 53//41 49//41
f 30//24 53//24 31//24
f 3//42 54//42 28//42
f 6//43 55//43 15//43
f 21//44 56//44 2//44
f 20//45 57//45 21//45
f 2//46 58//46 3//46
f 16//47 39//47 14//47
f 14//48 39//48 17//48
f 19//49 20//49 1//49
f 13//5 22//5 10//5
f 7//50 24//50 25//50
f 22//51 27//51 11//51
f 29//52 30//52 23//52
f 23//53 31//53 5//53
f 33//26 19//26 18//26
f 18//26 41//26 32//26
f 25//54 24//54 34//54
f 27//19 26//19 36//19
f 59//55 60//55 11//55
f 39//56 47//56 40//56
f 12//31 38//31 41//31
f 24//32 9//32 42//32
f 25//57 35//57 36//57
f 27//58 37//58 43//58
f 61//59 20//59 19//59
f 42//60 9//34 45//34
f 8//34 44//34 9//34
f 44//61 8//61 46//61
f 17//62 40//62 46//62
f 16//63 51//63 47//63
f 28//37 54//37 48//37
f 6//64 5//64 49//64
f 15//39 55//39 51//39
f 30//65 29//65 48//65
f 5//53 31//53 53//53
f 30//66 52//66 53//66
f 3//67 58//67 54//67
f 6//68 50//68 55//68
f 21//44 57//44 56//44
f 20//45 61//45 57//45
f 2//46 56//46 58//46
f 38//55 11//55 60//55
f 43//55 59//55 11//55
f 19//69 33//69 61//69
