# Blender v2.79 (sub 0) OBJ File: ''
# www.blender.org
o Mill
v 0.188400 7.025400 -0.557999
v 0.188400 4.148400 -0.557999
v 0.097200 4.148400 -0.509899
v 0.097200 7.025400 -0.509899
v -0.357700 7.025401 -1.593799
v -0.449000 7.025401 -1.545699
v -0.879600 7.025401 -2.583399
v -0.970800 7.025401 -2.535299
v -0.059300 3.075400 -0.594700
v -0.432200 3.075400 -1.301900
v -0.596100 1.645200 -1.281800
v -0.168500 1.645200 -0.470800
v 1.992300 8.668300 -2.832899
v -0.617500 8.668300 -1.456799
v 0.082800 7.251500 -0.128799
v 2.692600 7.251501 -1.504899
v 3.061000 1.524100 -1.390900
v -0.031300 1.524100 0.239600
v -1.661700 1.524100 -2.852700
v 1.430500 1.524101 -4.483099
v 2.435200 4.008601 -1.584599
v 0.162400 4.008600 -0.386199
v 0.076900 3.920600 -0.109899
v 2.711500 3.920600 -1.499099
v 1.236800 4.008601 -3.857399
v 1.322300 3.920601 -4.133699
v -1.036000 4.008601 -2.658999
v -1.312300 3.920600 -2.744499
v -0.879600 4.148400 -2.583399
v -0.970800 4.148400 -2.535299
v 2.263400 4.148400 -1.610599
v 0.238000 4.148400 -0.542599
v 0.286100 4.148400 -0.451399
v 2.311500 4.148400 -1.519399
v 2.263400 7.025401 -1.610599
v 2.311500 7.025401 -1.519399
v 0.238000 7.025400 -0.542599
v 0.286100 7.025400 -0.451399
v -0.864200 4.148400 -2.632999
v 1.161200 4.148400 -3.700899
v 1.113100 4.148400 -3.792199
v -0.912300 4.148400 -2.724199
v 1.316500 7.251501 -4.114799
v -1.293400 7.251501 -2.738599
v 0.162400 7.165200 -0.386199
v 2.435200 7.165201 -1.584599
v 1.823800 7.165201 -2.744099
v -0.449000 7.165201 -1.545699
v 1.236800 7.165201 -3.857399
v -1.036000 7.165201 -2.658999
v -0.864200 7.025401 -2.632999
v -0.912300 7.025401 -2.724199
v 1.161200 7.025401 -3.700899
v 1.113100 7.025401 -3.792199
v -0.768200 1.666200 -1.191000
v -0.340700 1.666200 -0.380100
v -0.231400 3.096400 -0.503900
v -0.604300 3.096400 -1.211100
v 1.302000 4.148400 -3.733699
v 2.370000 4.148400 -1.708299
v 1.302000 7.025401 -3.733699
v 1.823800 7.025401 -2.744099
v 2.370000 7.025401 -1.708299
v 1.210800 4.148400 -3.685599
v 2.278800 4.148400 -1.660199
v 1.210800 7.025401 -3.685599
v 1.732600 7.025401 -2.695999
v 2.278800 7.025401 -1.660199
vn -0.7800 -0.5774 -0.2414
vn -0.7800 0.5774 -0.2414
vn -0.9407 0.3015 0.1551
vn -0.9407 -0.3016 0.1551
vn -0.6255 -0.7071 0.3298
vn -0.2413 -0.5773 0.7800
vn -0.6595 -0.3015 0.6886
vn -0.8287 -0.5223 -0.2010
vn -0.3021 -0.5223 0.7974
vn -0.1768 0.6249 0.7604
vn -0.7273 0.6251 -0.2835
vn 0.5595 0.7712 -0.3036
vn -0.5666 0.7712 0.2902
vn -0.2831 0.0573 0.9574
vn 0.9499 0.0573 0.3073
vn 0.8154 -0.5211 0.2524
vn -0.2524 -0.5211 0.8154
vn -0.8153 -0.5211 -0.2524
vn 0.2524 -0.5211 -0.8153
vn 0.6087 0.7707 0.1885
vn -0.1885 0.7707 0.6087
vn -0.2460 0.5547 0.7949
vn 0.7949 0.5547 0.2460
vn 0.1885 0.7707 -0.6087
vn 0.2460 0.5547 -0.7949
vn -0.6087 0.7707 -0.1885
vn -0.7949 0.5546 -0.2460
vn -0.2414 0.5773 0.7800
vn -0.6595 0.3015 0.6886
vn -0.2414 0.5774 0.7800
vn 0.7800 0.5773 0.2414
vn 0.6886 0.3015 0.6595
vn 0.1551 0.3015 0.9407
vn -0.2414 -0.5774 0.7800
vn 0.1551 -0.3016 0.9407
vn 0.7800 -0.5773 0.2414
vn 0.6886 -0.3015 0.6595
vn 0.2414 0.5774 -0.7800
vn -0.7799 0.5774 -0.2416
vn -0.6886 0.3014 -0.6596
vn -0.1551 0.3015 -0.9407
vn 0.2827 0.0450 -0.9582
vn -0.9503 0.0450 -0.3080
vn -0.4494 -0.5073 0.7353
vn 0.8606 -0.5073 0.0446
vn 0.8796 -0.1105 -0.4627
vn -0.8787 -0.1105 0.4644
vn 0.4505 -0.5076 -0.7344
vn -0.8605 -0.5076 -0.0431
vn 0.2414 -0.5774 -0.7800
vn -0.1551 -0.3016 -0.9407
vn -0.7800 -0.5774 -0.2412
vn -0.6886 -0.3014 -0.6596
vn -0.6322 0.3843 0.6728
vn -0.9124 0.3841 0.1416
vn -0.9621 -0.2167 0.1656
vn -0.6801 -0.2166 0.7004
vn 0.9407 0.3015 -0.1551
vn 0.6595 0.3015 -0.6886
vn 0.9408 -0.3015 -0.1551
vn 0.6255 -0.7071 -0.3298
vn 0.6595 -0.3015 -0.6886
vn 0.7800 0.5774 0.2414
vn 0.2414 0.5773 -0.7800
vn 0.7800 -0.5774 0.2414
vn 0.2414 -0.5773 -0.7800
s 1
f 1//1 2//2 3//3
f 3//3 4//4 1//1
f 5//5 1//1 4//4
f 4//4 6//5 5//5
f 7//6 5//5 6//5
f 6//5 8//7 7//6
f 9//8 10//9 11//10
f 11//10 12//11 9//8
f 13//12 14//13 15//14
f 15//14 16//15 13//12
f 17//16 18//17 19//18
f 19//18 20//19 17//16
f 21//20 22//21 23//22
f 23//22 24//23 21//20
f 25//24 21//20 24//23
f 24//23 26//25 25//24
f 27//26 25//24 26//25
f 26//25 28//27 27//26
f 22//21 27//26 28//27
f 28//27 23//22 22//21
f 29//28 7//6 8//7
f 8//7 30//29 29//28
f 31//30 32//31 33//32
f 33//32 34//33 31//30
f 35//34 31//30 34//33
f 34//33 36//35 35//34
f 37//36 35//34 36//35
f 36//35 38//37 37//36
f 32//31 37//36 38//37
f 38//37 33//32 32//31
f 39//38 40//39 41//40
f 41//40 42//41 39//38
f 43//42 44//43 14//13
f 14//13 13//12 43//42
f 16//15 15//14 45//44
f 45//44 46//45 16//15
f 47//46 13//12 16//15
f 16//15 46//45 47//46
f 15//14 14//13 48//47
f 48//47 45//44 15//14
f 43//42 13//12 47//46
f 47//46 49//48 43//42
f 44//43 43//42 49//48
f 49//48 50//49 44//43
f 48//47 14//13 44//43
f 44//43 50//49 48//47
f 51//50 39//38 42//41
f 42//41 52//51 51//50
f 53//52 51//50 52//51
f 52//51 54//53 53//52
f 40//39 53//52 54//53
f 54//53 41//40 40//39
f 12//11 11//10 55//54
f 55//54 56//55 12//11
f 9//8 12//11 56//55
f 56//55 57//56 9//8
f 10//9 9//8 57//56
f 57//56 58//57 10//9
f 11//10 10//9 58//57
f 58//57 55//54 11//10
f 59//58 60//59 21//20
f 21//20 25//24 59//58
f 61//60 59//58 25//24
f 25//24 49//48 61//60
f 47//46 62//61 61//60
f 61//60 49//48 47//46
f 63//62 62//61 47//46
f 47//46 46//45 63//62
f 60//59 63//62 46//45
f 46//45 21//20 60//59
f 3//3 30//29 27//26
f 27//26 22//21 3//3
f 4//4 3//3 22//21
f 22//21 45//44 4//4
f 48//47 6//5 4//4
f 4//4 45//44 48//47
f 8//7 6//5 48//47
f 48//47 50//49 8//7
f 30//29 8//7 50//49
f 50//49 27//26 30//29
f 34//33 33//32 22//21
f 22//21 21//20 34//33
f 36//35 34//33 21//20
f 21//20 46//45 36//35
f 38//37 36//35 46//45
f 46//45 45//44 38//37
f 33//32 38//37 45//44
f 45//44 22//21 33//32
f 42//41 41//40 25//24
f 25//24 27//26 42//41
f 52//51 42//41 27//26
f 27//26 50//49 52//51
f 54//53 52//51 50//49
f 50//49 49//48 54//53
f 41//40 54//53 49//48
f 49//48 25//24 41//40
f 64//63 65//64 60//59
f 60//59 59//58 64//63
f 66//65 64//63 59//58
f 59//58 61//60 66//65
f 67//61 66//65 61//60
f 61//60 62//61 67//61
f 68//66 67//61 62//61
f 62//61 63//62 68//66
f 65//64 68//66 63//62
f 63//62 60//59 65//64
f 2//2 29//28 30//29
f 30//29 3//3 2//2
f 18//17 56//55 55//54
f 55//54 19//18 18//17
f 24//23 23//22 18//17
f 18//17 17//16 24//23
f 26//25 24//23 17//16
f 17//16 20//19 26//25
f 28//27 26//25 20//19
f 20//19 19//18 28//27
f 51//50 53//52 40//39
f 40//39 39//38 51//50
f 5//5 7//6 29//28
f 64//63 66//65 67//61
f 5//5 29//28 2//2
f 2//2 1//1 5//5
f 57//56 56//55 18//17
f 18//17 23//22 57//56
f 58//57 57//56 23//22
f 23//22 28//27 58//57
f 19//18 55//54 58//57
f 58//57 28//27 19//18
f 35//34 37//36 32//31
f 32//31 31//30 35//34
f 67//61 68//66 65//64
f 65//64 64//63 67//61
